<?xml version="1.0" standalone="no"?><!DOCTYPE svg PUBLIC "-//W3C//DTD SVG 1.1//EN" "http://www.w3.org/Graphics/SVG/1.1/DTD/svg11.dtd"><svg t="1609815486275" class="icon" viewBox="0 0 1024 1024" version="1.1" xmlns="http://www.w3.org/2000/svg" p-id="1545" width="32" height="32" xmlns:xlink="http://www.w3.org/1999/xlink"><defs><style type="text/css"></style></defs><path d="M938.1207 270.510242l-394.990648 732.577177-394.990648-607.650976-22.592274-149.015074 78.030117-115.970489L370.169397 50.311195l198.219741-27.408456L745.529125 50.311195l145.504436 84.350859z" fill="#AFD7DD" p-id="1546"></path><path d="M938.1207 270.510242l-394.990648 732.577177-394.990648-607.650976-22.592274-149.015074 78.030117-115.970489L370.169397 50.311195l198.219741-27.408456L745.529125 50.311195l145.504436 84.350859z" fill="#D8E5EA" p-id="1547"></path><path d="M938.1207 270.510242L574.598431 794.69399 148.139404 395.436443l-22.592274-149.015074 78.030117-115.970489L370.169397 50.311195l198.219741-27.408456L745.529125 50.311195l145.504436 84.350859z" fill="#F0FBFC" p-id="1548"></path><path d="M938.1207 270.510242L703.369617 611.177536 148.139404 395.436443l-22.592274-149.015074 78.030117-115.970489L370.169397 50.311195l198.219741-27.408456L745.529125 50.311195l145.504436 84.350859z" fill="#D8E5EA" p-id="1549"></path><path d="M543.122092 1015.028368a11.940948 11.940948 0 0 1-10.014476-5.437112L138.124929 401.94028a12.100161 12.100161 0 0 1-1.799103-4.720655L113.741513 248.212512a11.948909 11.948909 0 0 1 10.022436-13.59676 12.020555 12.020555 0 0 1 13.596759 10.022436l22.202204 146.45175 382.611864 588.609144 385.437889-714.86477a11.940948 11.940948 0 1 1 21.016069 11.33594l-394.990647 732.577177a11.925027 11.925027 0 0 1-10.022436 6.265017c-0.167173 0.015921-0.326386 0.015921-0.493559 0.015922z" fill="#33363A" p-id="1550"></path><path d="M833.693127 75.411069C765.828738 36.228837 672.04453 11.893184 568.890658 11.940948c-127.473603 0-242.934612 29.852371-326.155061 78.221172-83.403543 48.464329-135.004361 115.492852-134.590409 189.423243 0.50948 91.579113 65.157774 174.544821 169.020143 234.496342 103.854408 59.967442 247.281118 97.143595 405.283745 97.095831 11.566799-0.015921 20.976266-5.476915 20.936463-12.171807-0.023882-3.359387-2.372268-6.392388-6.16153-8.56564-3.797222-2.189174-9.035318-3.542481-14.814736-3.542481-146.610963-0.047764-279.243056-34.389931-375.614469-90.026789-96.355492-55.628898-156.163722-132.409195-156.633399-217.285456-0.390071-67.323066 46.450289-128.070651 122.39472-172.196435 75.777258-44.030257 180.483453-71.160091 296.374336-71.160091 91.857735 0 174.759758 21.565353 235.125232 56.40904 60.277907 34.795923 97.581429 82.742811 97.883934 135.856149 0.230858 41.872925-28.84137 79.670007-76.04792 107.094384-47.190628 27.424378-112.260835 44.3248-184.447847 44.284997-56.79115 0-108.0417-13.357941-145.377065-34.907372-37.15227-21.437982-59.927639-51.043574-60.110734-83.729929-0.238819-25.625275 17.529312-48.679266 46.362722-65.428436 28.83341-16.757131 68.652492-27.066149 112.802158-27.06615 34.182955 0 65.022444 7.92879 87.527151 20.928502s36.316404 30.831528 36.427853 50.637582c0.087567 15.157044-10.348822 28.761764-27.559709 38.760318-17.12332 9.95079-40.591264 16.048634-66.765822 16.048634-19.845856-0.063685-37.582145-4.649009-50.717188-12.132003-12.943988-7.570561-21.016069-17.87958-21.079754-29.326969 0.047764-8.517876 5.79534-16.088438 15.459548-21.724565 9.584601-5.564482 22.727605-8.971632 37.422932-9.019397 11.566799 0 20.880738-5.41323 20.840935-12.108121-0.015921-3.359387-2.364308-6.376466-6.153569-8.581562-3.805182-2.173253-9.043278-3.52656-14.830657-3.52656-26.246204-0.063685-50.080337 6.129687-67.10813 16.032714-17.115359 9.95079-27.718921 23.770448-27.647275 38.935452 0.103488 18.142281 13.015634 34.644671 33.554064 46.506013 20.538431 11.845421 49.069337 19.280651 80.306858 19.216966 37.741357 0 71.876548-8.860184 96.45898-23.149518 24.662039-14.337099 39.858885-34.111309 39.739476-55.987127-0.159213-26.397456-18.795053-50.422644-48.806636-67.74498-30.011583-17.338257-71.550162-28.156756-117.220309-28.108992-55.628898-0.047764-106.115227 13.047476-142.407749 34.238679-36.380089 21.055872-58.829072 50.327117-58.630056 82.60748 0.206976 39.29368 27.83037 75.068762 72.569123 100.908974 44.83428 25.872055 106.791881 42.008256 175.062262 42.05602 83.674205 0 159.483305-19.63888 214.141006-51.385881 54.64974-31.778844 88.490387-75.753376 88.219726-124.321193-0.302504-59.712702-42.446091-113.940528-110.230874-153.090917" fill="#F0FBFC" p-id="1551"></path><path d="M641.595112 416.142048c-68.039523-0.047764-132.329589-15.547115-181.032737-43.656107-50.422644-29.119993-78.316699-68.604728-78.539597-111.18615-0.214937-35.743239 22.719644-68.779862 64.59257-93.004066 39.572303-23.109715 92.168199-35.846727 148.09164-35.846727h0.612969c46.068178 0 89.700403 10.547838 122.872358 29.70908 35.146191 20.283691 54.594016 47.986691 54.77711 78.014195 0.143291 25.609354-16.088438 49.180786-45.678108 66.383712-27.480102 15.976989-63.860191 24.765527-102.461297 24.765527h-0.421913c-32.089308 0-62.570569-7.387467-85.847458-20.809093-25.378495-14.655524-39.405129-34.819805-39.532499-56.783189-0.095528-18.89058 12.139964-36.865688 33.585907-49.324077 19.575195-11.383704 45.383564-17.648722 72.712414-17.648722 7.411349-0.095528 15.292374 1.751339 21.159361 5.110726 7.729774 4.489797 12.124043 11.367783 12.163846 18.89058a11.940948 11.940948 0 0 1-11.885224 11.996673h-0.055725a11.940948 11.940948 0 0 1-11.773775-9.966712c-0.111449-0.071646-0.230858-0.151252-0.39007-0.230858-2.133449-1.225937-5.532639-2.022001-9.178609-1.910552-22.878857 0-44.985532 5.246057-60.747585 14.416705-13.843539 8.048199-21.756408 18.452745-21.708644 28.546827 0.071646 12.936027 10.125924 26.142716 27.583591 36.228837 19.415982 11.200609 46.354761 17.616879 73.954273 17.616879h0.358228c34.469537 0 66.590688-7.650168 90.480546-21.53351 21.883778-12.729051 33.888411-28.920977 33.800844-45.606462-0.12737-21.183242-15.340138-41.594303-42.836162-57.467803-29.59763-17.091477-68.994799-26.508905-110.955291-26.508905h-0.573166c-51.775952 0-100.089028 11.574759-136.102928 32.606749-34.174994 19.77421-52.88248 45.415407-52.715306 72.226816 0.175134 33.74512 23.834133 65.929956 66.598648 90.639758 45.136784 26.039228 105.191794 40.408169 169.099749 40.455933 78.961511 0 152.883941-17.680564 208.138689-49.769873 53.288472-30.998702 82.511953-71.454635 82.273134-113.932568-0.294543-53.423803-37.335365-104.14099-104.292242-142.813741a11.940948 11.940948 0 1 1 11.940948-20.681723c74.607045 43.090902 115.882923 101.100029 116.233191 163.360134 0.286583 51.393841-33.148072 99.237241-94.158358 134.717778-58.852954 34.174994-137.026362 52.993928-220.143322 52.993929z" fill="#33363A" p-id="1552"></path><path d="M682.162493 623.118484c-154.810414 0-300.728802-35.042703-410.967636-98.695917-112.32452-64.839349-174.473176-151.761492-174.990617-244.765558-0.421914-75.944431 49.49125-146.905506 140.52904-199.819829C325.319195 28.355772 443.279843 0 568.890658 0h0.302504c101.74484 0 197.789867 23.101755 270.4784 65.070207a11.940948 11.940948 0 1 1-11.940949 20.681723C758.616405 45.853241 666.806434 23.881897 569.193162 23.881897h-0.294543c-121.471287 0-235.165035 27.209441-320.160706 76.605163-83.339858 48.424526-129.025926 112.006095-128.651776 179.026657 0.477638 84.167764 58.375316 163.797968 163.049668 224.227127 106.648589 61.583451 248.347842 95.495744 399.010767 95.495744 4.903749 0.159213 8.088002-1.249819 9.457231-2.149371a11.940948 11.940948 0 0 1 11.718051-10.030396h0.071645a11.940948 11.940948 0 0 1 11.940949 11.869302c0.031843 5.29382-2.181213 10.460271-6.233175 14.544075-5.986395 6.026199-15.937186 9.624404-26.628315 9.640326l-0.310465 0.00796zM378.026541 725.93801c-43.95065 0-85.521072-10.030397-117.084979-28.252284-33.601828-19.3921-52.189905-45.893045-52.349117-74.607045-0.135331-24.072952 15.093359-46.235352 42.875965-62.387474a11.940948 11.940948 0 0 1 12.004633 20.64988c-20.068754 11.670287-31.070347 26.44522-30.998701 41.610224 0.111449 19.877699 14.456508 39.078743 40.408169 54.060653 27.989583 16.152123 65.324948 25.044149 105.14403 25.044149h0.103488a11.940948 11.940948 0 0 1 0.00796 23.881897h-0.111448zM503.414458 930.072501c-27.153716 0-52.922283-6.233175-72.569123-17.561155-21.692723-12.530035-33.681435-29.884213-33.792883-48.870321-0.095528-16.231729 9.887105-31.006662 28.093071-41.586342a11.940948 11.940948 0 0 1 12.004633 20.64988c-10.348822 6.010277-16.255611 13.588799-16.215808 20.793171 0.055724 10.014475 8.024317 20.331455 21.843975 28.323929 15.833697 9.122884 37.940373 14.368941 60.644096 14.368941h0.095527a11.940948 11.940948 0 0 1 11.940949 11.932988c0.007961 6.631207-5.190332 12.307137-12.044437 11.948909zM581.364969 796.843361a11.940948 11.940948 0 0 1 0-23.881897c30.624552 0 59.17934-6.79838 80.410345-19.121439 19.209005-11.160806 29.732961-25.282968 29.661316-39.763357a11.940948 11.940948 0 0 1 11.869302-12.012594h0.071646a11.940948 11.940948 0 0 1 11.940948 11.869302c0.135331 23.404259-14.623681 44.913887-41.538578 60.548569-24.829212 14.424666-57.642938 22.361416-92.414979 22.361416z" fill="#33363A" p-id="1553"></path><path d="M139.748898 547.962156m-22.632077 0a22.632077 22.632077 0 1 0 45.264154 0 22.632077 22.632077 0 1 0-45.264154 0Z" fill="#D8E5EA" p-id="1554"></path><path d="M831.981591 621.725374m-10.547838 0a10.547838 10.547838 0 1 0 21.095676 0 10.547838 10.547838 0 1 0-21.095676 0Z" fill="#D8E5EA" p-id="1555"></path><path d="M898.413067 578.546905m-30.576789 0a30.576788 30.576788 0 1 0 61.153577 0 30.576788 30.576788 0 1 0-61.153577 0Z" fill="#D8E5EA" p-id="1556"></path><path d="M74.049801 433.217604m-7.54668 0a7.546679 7.546679 0 1 0 15.093359 0 7.546679 7.546679 0 1 0-15.093359 0Z" fill="#D8E5EA" p-id="1557"></path><path d="M52.802873 152.589398m-13.708208 0a13.708209 13.708209 0 1 0 27.416417 0 13.708209 13.708209 0 1 0-27.416417 0Z" fill="#D8E5EA" p-id="1558"></path><path d="M942.698063 504.990663m-13.708208 0a13.708209 13.708209 0 1 0 27.416417 0 13.708209 13.708209 0 1 0-27.416417 0Z" fill="#D8E5EA" p-id="1559"></path><path d="M128.070651 55.493567m-19.925463 0a19.925462 19.925462 0 1 0 39.850925 0 19.925462 19.925462 0 1 0-39.850925 0Z" fill="#D8E5EA" p-id="1560"></path><path d="M703.369617 1024h-232.450459a11.940948 11.940948 0 0 1 0-23.881897h232.450459a11.940948 11.940948 0 0 1 0 23.881897zM815.136893 1024h-43.656107a11.940948 11.940948 0 0 1 0-23.881897h43.656107a11.940948 11.940948 0 0 1 0 23.881897z" fill="#33363A" p-id="1561"></path><path d="M790.944532 292.322375H507.538066L351.366383 566.39898h126.892477l-166.488661 338.287065 437.532266-391.503891H607.149456z" fill="#FFBF31" p-id="1562"></path><path d="M478.25886 566.39898h92.820972L477.653852 756.244136l271.648613-243.061982H607.149456l183.795076-220.859779H600.359037L444.195315 566.39898z" fill="#FFD833" p-id="1563"></path><path d="M311.770199 916.626993a11.932988 11.932988 0 0 1-10.70705-17.210887l158.018549-321.068217h-107.707354a11.948909 11.948909 0 0 1-10.380664-17.847737l156.171682-274.084567a11.95687 11.95687 0 0 1 10.380664-6.034159h283.414427a11.940948 11.940948 0 0 1 9.178609 19.583155L632.623479 501.241206h116.678986a11.932988 11.932988 0 0 1 7.960632 20.840935l-437.532266 391.503891a11.909106 11.909106 0 0 1-7.960632 3.040961z m60.142576-362.168961h106.346085a11.932988 11.932988 0 0 1 10.707051 17.210887l-139.326985 283.103962L718.049023 525.123102H607.149456a11.940948 11.940948 0 0 1-9.178609-19.583155l167.507623-201.276624h-250.998733L371.912775 554.458032z" fill="#33363A" p-id="1564"></path><path d="M895.650727 1012.059052l77.31366-286.582759-139.788701 82.949787-0.007961 0.015922c0.143291 20.013029-9.974672 39.572303-28.387614 50.50225-18.412942 10.929948-40.432051 10.420468-57.92156 0.716457l-73.683611 43.719792c43.544658 47.031415 115.580419 59.083812 172.865127 25.091913 0.541323-0.326386 1.058764-0.668693 1.584166-0.995079l0.541323 4.553481 47.485171 80.028236z" fill="#3E5054" p-id="1565"></path><path d="M804.780111 858.936292c-18.412942 10.929948-40.432051 10.420468-57.92156 0.716457l-63.247223 37.53438c42.756555 26.898976 98.743682 29.557827 145.098443 2.053843 46.346801-27.503984 70.849626-77.926628 67.713138-128.333351l-63.239263 37.534381c0.12737 20.005069-9.990593 39.564342-28.403535 50.49429z" fill="#4A5D60" p-id="1566"></path><path d="M717.420133 810.073931c-0.12737-20.013029 9.982633-39.572303 28.387615-50.50225 18.412942-10.929948 40.440012-10.420468 57.92952-0.716457l73.683612-43.735713c-43.536697-47.015494-115.588379-59.083812-172.865128-25.060071-57.29267 33.991899-81.230291 102.994659-60.81923 163.718362l73.683611-43.703871z" fill="#3E5054" p-id="1567"></path><path d="M745.807748 759.571681c18.412942-10.929948 40.440012-10.420468 57.92952-0.716457l63.247223-37.550302c-42.756555-26.914897-98.743682-29.557827-145.098443-2.053843-46.346801 27.519905-70.849626 77.926628-67.729059 128.333351l63.247223-37.518459c-0.111449-20.005069 9.998554-39.564342 28.403536-50.49429z" fill="#4A5D60" p-id="1568"></path><path d="M643.744482 865.71875a11.901145 11.901145 0 0 1-11.312058-8.143726c-22.512668-66.964838 5.261978-141.739056 66.041405-177.79276 60.755545-36.085546 139.701134-24.646117 187.719667 27.217402a11.940948 11.940948 0 0 1-2.666812 18.381099l-73.683611 43.735714a11.948909 11.948909 0 0 1-11.885224 0.167173c-14.400784-7.968593-32.017663-7.777538-46.044296 0.541323a46.458249 46.458249 0 0 0-22.544511 40.153429 11.95687 11.95687 0 0 1-5.843104 10.348822l-73.675651 43.70387a11.893184 11.893184 0 0 1-6.105805 1.687654zM775.206362 682.687895c-22.210164 0-44.547698 5.763498-64.544805 17.640761-46.816478 27.766685-70.371989 82.838339-59.513687 135.171534l54.64178-32.415694c2.109568-22.178321 14.679406-42.350563 33.928214-53.782031 19.240848-11.431468 42.987414-12.784775 63.47012-4.004198l54.64974-32.439576c-23.340574-19.821974-52.866558-30.170796-82.631362-30.170796z" fill="#33363A" p-id="1569"></path><path d="M980.18468 715.963338a11.940948 11.940948 0 0 0-13.318137-0.764221l-139.788701 82.949787a12.012594 12.012594 0 0 0-5.851065 10.372704c0.119409 16.438705-8.517876 31.826607-22.54451 40.145468s-31.659434 8.509916-46.036336 0.541323a11.948909 11.948909 0 0 0-11.885224 0.167173l-73.683612 43.719792a11.948909 11.948909 0 0 0-2.666811 18.373139c45.256194 48.902164 118.056175 61.885955 177.219593 32.925175l33.052545 55.708504h-4.776379a11.940948 11.940948 0 0 0 0 23.881897h43.656107a11.940948 11.940948 0 0 0 0-23.881897h-2.324505l73.253737-271.529203a11.940948 11.940948 0 0 0-4.306702-12.609641z m-88.697363 265.686099l-31.762923-53.543212-0.246779-2.045883a11.96483 11.96483 0 0 0-6.67101-9.345782 12.004633 12.004633 0 0 0-11.45535 0.597047l-1.409032 0.883631c-46.808517 27.766685-106.441613 22.042991-147.176168-12.561878l54.64178-32.423655a70.39587 70.39587 0 0 0 63.47012-4.004198 70.38791 70.38791 0 0 0 33.936175-53.797952l108.965133-64.672176-62.291946 230.914058z" fill="#33363A" p-id="1570"></path><path d="M314.819121 239.861808a195.600693 195.600693 0 0 1-3.048922-34.079466c0-107.046621 86.786812-193.841394 193.841394-193.841394 77.19425 0 143.832702 45.136784 175.006538 110.453772 3.120568-0.230858 6.249096-0.37415 9.425388-0.37415 67.880311 0 123.342035 53.081495 127.171099 120.030412 33.649592 12.267334 57.714583 44.45217 57.714584 82.360701 0 48.464329-39.29368 87.734127-87.75801 87.734127H338.151734c-48.48025 0-87.76597-39.277759-87.76597-87.734127 0-40.392248 27.312929-74.304541 64.433357-84.549875z" fill="#436377" p-id="1571"></path><path d="M505.611593 47.875242c77.19425 0 143.832702 45.136784 175.006538 110.469693 3.120568-0.24678 6.249096-0.405992 9.425388-0.405992 67.880311 0 123.342035 53.097417 127.171099 120.01449a87.869458 87.869458 0 0 1 55.819953 64.536846c-8.342743 39.78724-43.608343 69.655532-85.863379 69.655531H338.151734c-42.262996 0-77.528597-29.868292-85.871339-69.63961a87.821694 87.821694 0 0 1 62.538726-66.702137 195.831552 195.831552 0 0 1-3.048922-34.111309l0.015921-0.867709c1.026922-0.294543 2.006079-0.668693 3.033001-0.963237a208.839225 208.839225 0 0 1-2.181213-16.231729C321.768753 125.069492 404.654855 47.875242 505.611593 47.875242z" fill="#364B5B" p-id="1572"></path><path d="M554.81626 341.948956a76.18325 76.18325 0 0 0 24.319732-12.124043l74.630926 82.312937h0.605008l-99.555666-70.188894zM514.599146 173.613427c-61.105813 0-111.409047 46.036336-118.223348 105.303243a152.342618 152.342618 0 0 1-0.811985-15.563036c0-65.722979 53.280511-119.003491 119.027373-119.003491 52.572015 0 95.209161 42.621225 95.209161 95.201201 0 4.792301-0.493559 9.457231-1.329426 13.97887-7.315821-45.311918-46.498053-79.916787-93.871775-79.916787z" fill="#436377" p-id="1573"></path><path d="M886.408433 315.471893c-0.087567-1.011-0.214937-2.01404-0.334346-3.01708a98.313807 98.313807 0 0 0-0.88363-5.755537c-0.206976-1.13837-0.390071-2.284701-0.62889-3.415111a103.249399 103.249399 0 0 0-1.87871-7.2999c-0.485599-1.623969-1.058764-3.200174-1.623969-4.7923-0.342307-0.955276-0.676654-1.910552-1.042842-2.849907-0.668693-1.719497-1.377189-3.423072-2.14141-5.094804-0.25474-0.557244-0.533362-1.098567-0.796064-1.655812-2.738457-5.731655-5.994356-11.144885-9.727892-16.207847l-0.979158-1.313504c-1.25778-1.655811-2.547402-3.27182-3.90867-4.840064l-0.151252-0.167174a101.537864 101.537864 0 0 0-9.417428-9.457231l-0.525402-0.477638c-1.560284-1.353307-3.160371-2.634969-4.800261-3.884788l-1.337386-1.00304a99.571587 99.571587 0 0 0-17.736289-10.484152c-7.817341-69.942114-67.219578-123.684342-138.443354-123.684343-0.748299 0-1.496599 0.007961-2.228977 0.023882-0.294543-0.565205-0.644811-1.090607-0.947315-1.655811-1.719497-3.184253-3.502678-6.328703-5.381388-9.409468-0.931394-1.536402-1.926473-3.01708-2.905631-4.521639a230.56379 230.56379 0 0 0-7.013317-10.213491c-2.069764-2.810103-4.195253-5.580403-6.392387-8.279057-0.413953-0.50152-0.811984-1.018961-1.225938-1.51252a206.721697 206.721697 0 0 0-8.127805-9.162688c-0.50152-0.541323-1.018961-1.066725-1.528441-1.600087-31.293245-32.74208-73.221895-55.191063-120.213507-61.726742l-0.708496-0.087567a210.216414 210.216414 0 0 0-11.932988-1.25778c-0.923433-0.071646-1.838906-0.151252-2.762339-0.206976A203.203097 203.203097 0 0 0 505.611593 0c-113.470851 0-205.782342 92.311491-205.782342 205.782342 0 8.43827 0.50948 16.900422 1.536402 25.171519 0.015921 0.103488 0.079606 0.183095 0.087567 0.286583l0.047763 0.50152-0.151252 0.063685a101.307005 101.307005 0 0 0-7.801419 3.53452c-1.663772 0.835866-3.311623 1.703575-4.927631 2.627009-0.804024 0.461717-1.576205 0.955276-2.364308 1.440874-5.16645 3.168332-10.014475 6.782459-14.512233 10.802578-0.748299 0.668693-1.496599 1.329426-2.221016 2.022001-1.281662 1.217977-2.52352 2.475757-3.733537 3.757418-0.660732 0.692575-1.289622 1.409032-1.926473 2.117528-1.233898 1.377189-2.459835 2.762339-3.614127 4.203214l-0.294543 0.390071c-2.563324 3.239977-4.895789 6.663049-7.045159 10.205531-0.413953 0.684614-0.843827 1.353307-1.241859 2.045882a102.341887 102.341887 0 0 0-3.884789 7.538719c-0.740339 1.584166-1.464756 3.160371-2.117528 4.7923-0.461717 1.154292-0.859748 2.332465-1.281662 3.502678-0.835866 2.316544-1.592126 4.66493-2.252858 7.061081-0.469677 1.671733-0.923433 3.351426-1.305544 5.055002a108.742236 108.742236 0 0 0-0.708496 3.638009c-0.350268 1.88667-0.636851 3.789261-0.87567 5.707773-0.12737 1.034882-0.262701 2.053843-0.358228 3.096686-0.278622 2.993198-0.461717 6.010277-0.461717 9.059199 0 54.960205 44.730792 99.675076 99.706918 99.675076h449.003537c54.976126 0 99.698957-44.714871 99.698958-99.675076 0.031843-3.001158-0.151252-5.978435-0.421914-8.931829zM787.163232 400.204862H696.037875l-0.151252-0.015921H544.35599c-75.458832 0-136.835307-61.384435-136.835307-136.835307 0-59.036048 48.034455-107.062542 107.086424-107.062542 45.916926 0 83.268213 37.343326 83.268213 83.260252 0 35.424813-28.809528 64.242302-64.226381 64.242301a49.061376 49.061376 0 0 1-48.997691-49.005651 11.940948 11.940948 0 0 0-23.881896 0c0 40.193232 32.694316 72.887548 72.879587 72.887548 48.591699 0 88.108277-39.532499 88.108277-88.124198 0-59.075851-48.066297-107.142149-107.150109-107.142149-72.210895 0-130.968321 58.741505-130.968321 130.944439 0 57.881757 30.85541 108.55118 76.867865 136.851228h-122.354917c-41.80924 0-75.825022-33.99986-75.825022-75.793179 0-2.372268 0.143291-4.720655 0.358229-7.037199 0.087567-0.899551 0.222898-1.783182 0.334346-2.674772a69.416713 69.416713 0 0 1 2.13345-10.508035c0.350268-1.241859 0.700536-2.483717 1.106528-3.701694 0.238819-0.724418 0.525402-1.424953 0.788102-2.14141 1.862788-5.03908 4.219135-9.863223 7.077002-14.368941 0.111449-0.183095 0.214937-0.37415 0.334347-0.549284a74.829943 74.829943 0 0 1 2.913591-4.15545l0.867709-1.162252a74.368226 74.368226 0 0 1 4.131568-4.879867c1.122449-1.225937 2.276741-2.435953 3.478797-3.582285l0.676653-0.620929a75.649888 75.649888 0 0 1 19.209006-13.071358l0.708496-0.342308c1.703575-0.788103 3.446954-1.51252 5.222175-2.173252l0.644811-0.238819a75.562321 75.562321 0 0 1 25.848173-4.633088 11.940948 11.940948 0 0 0 0-23.881897c-4.481836 0-8.868144 0.398032-13.190768 0.979158-0.103488-0.915473-0.278622-1.838906-0.366189-2.746418-0.071646-0.788103-0.151252-1.568245-0.214937-2.356347a178.254476 178.254476 0 0 1-0.668693-14.774933c0-100.303966 81.59648-181.900445 181.900445-181.900446 3.988277 0 7.960632 0.167173 11.909106 0.429874l2.435954 0.183095c42.525697 3.415111 82.281094 21.828053 112.396165 50.979888l0.206977 0.191056c2.89767 2.810103 5.691852 5.731655 8.406427 8.740774 0.437835 0.485599 0.851788 0.987118 1.281662 1.472717 2.006079 2.276741 3.940513 4.617167 5.835144 6.989435 0.788103 0.995079 1.592126 1.990158 2.364307 3.001158 2.061804 2.706615 4.067883 5.460994 5.986396 8.294979 0.811984 1.202055 1.560284 2.435953 2.348386 3.65393a176.805641 176.805641 0 0 1 6.066002 10.117963 180.777996 180.777996 0 0 1 22.679841 87.837616 11.940948 11.940948 0 0 0 23.881897 0c0-25.091913-4.5296-49.148943-12.792736-71.39891 51.6247 3.813143 94.086712 41.650028 104.379809 91.682601a99.60343 99.60343 0 0 0-15.809816-1.37719 11.940948 11.940948 0 0 0 0 23.881897c9.06716 0 17.736289 1.679693 25.800409 4.617167l0.159213 0.087567a75.626006 75.626006 0 0 1 24.701842 14.870461l0.167173 0.151252a76.445951 76.445951 0 0 1 14.185846 17.290493l0.24678 0.398031c0.891591 1.496599 1.719497 3.033001 2.507599 4.593285l0.398032 0.819945c2.093646 4.298741 3.765379 8.81242 5.023159 13.46939 0.262701 0.971197 0.533362 1.934434 0.748299 2.921552a75.259817 75.259817 0 0 1 1.241859 7.204372c0.103488 0.843827 0.222898 1.687654 0.302504 2.539442 0.206976 2.26878 0.350268 4.561442 0.350268 6.885946-0.047764 41.785358-34.055584 75.785218-75.864825 75.785219z" fill="#33363A" p-id="1574"></path></svg>